<?xml version="1.0" encoding="UTF-8"?>
<svg version="1.1" xmlns="http://www.w3.org/2000/svg" width="1024" height="1024">
<path d="M0 0 C337.92 0 675.84 0 1024 0 C1024 337.92 1024 675.84 1024 1024 C686.08 1024 348.16 1024 0 1024 C0 686.08 0 348.16 0 0 Z " fill="#FEFEFE" transform="translate(0,0)"/>
<path d="M0 0 C1.73691959 -0.00258898 3.47383859 -0.00560361 5.21075678 -0.0090034 C9.9523095 -0.01701387 14.69384704 -0.01885962 19.43540573 -0.01960087 C24.56173858 -0.02146184 29.68806374 -0.02901427 34.81439209 -0.03573608 C46.00888908 -0.04927685 57.20338246 -0.05533728 68.39788628 -0.05974674 C75.3965093 -0.062516 82.39513095 -0.06675455 89.39375305 -0.07125092 C108.79676985 -0.0834373 128.19978555 -0.09373832 147.60280609 -0.09712601 C149.46294495 -0.09745536 149.46294495 -0.09745536 151.36066237 -0.09779136 C152.60360048 -0.09800964 153.84653858 -0.09822791 155.12714148 -0.09845281 C157.64551131 -0.09889626 160.16388114 -0.09934282 162.68225098 -0.09979248 C163.93143037 -0.10001391 165.18060977 -0.10023534 166.46764308 -0.10046348 C186.69934073 -0.10440978 206.93100232 -0.12186153 227.16268605 -0.145152 C247.96785875 -0.16890807 268.77301339 -0.18132977 289.57819986 -0.18249393 C301.24601616 -0.18340822 312.91378545 -0.18909852 324.58158875 -0.20731354 C334.5180916 -0.22277196 344.4545329 -0.22780122 354.39104551 -0.21957543 C359.4528999 -0.21568939 364.51463055 -0.21649766 369.57646942 -0.23063278 C408.57242701 -0.33329801 408.57242701 -0.33329801 425.55725098 3.14044189 C427.39623837 3.51244532 427.39623837 3.51244532 429.27237701 3.89196396 C432.162401 4.50665683 435.01225287 5.20249298 437.86975098 5.95294189 C438.8726416 6.21156006 439.87553223 6.47017822 440.90881348 6.7366333 C466.41861381 13.49476558 489.87276982 25.55348742 509.55725098 43.14044189 C510.29459473 43.75661377 511.03193848 44.37278564 511.79162598 45.00762939 C544.61166708 72.44518376 559.78270561 115.03238798 563.8836996 156.42766124 C565.18738553 171.59718484 564.84802584 186.88567998 564.83335936 202.0984236 C564.83086728 206.95136636 564.83993676 211.80429077 564.84739685 216.65722656 C564.86007784 226.13807056 564.86194582 235.61888614 564.85959659 245.09973719 C564.85780577 252.81497703 564.85957935 260.53020833 564.86382103 268.24544716 C564.86441622 269.34801493 564.86501141 270.45058271 564.86562463 271.58656162 C564.86683652 273.8272174 564.86805066 276.06787317 564.86926701 278.30852894 C564.88011721 299.27220039 564.87799208 320.23585572 564.87188216 341.19952808 C564.86671577 360.32480023 564.87796564 379.45002141 564.89698038 398.57528349 C564.91641144 418.27219482 564.92460554 437.96908209 564.92085713 457.66600305 C564.91895299 468.70060773 564.92135526 479.73516905 564.93557167 490.76976585 C564.94755388 500.16429006 564.94881443 509.55874421 564.9367815 518.9532695 C564.9309403 523.73428608 564.9296593 528.51517497 564.94178391 533.29618263 C565.00485297 560.01245912 564.10885346 586.07467457 557.55725098 612.14044189 C557.37968262 612.85458252 557.20211426 613.56872314 557.01916504 614.30450439 C554.08592098 625.80742227 549.71164487 636.46329107 544.55725098 647.14044189 C544.08674316 648.12399658 543.61623535 649.10755127 543.13146973 650.12091064 C524.23929797 686.95785912 490.15109384 712.45778177 451.38513184 725.24957275 C428.82184793 732.42445104 405.76869486 734.2985913 382.23271179 734.27415466 C380.5087281 734.2760263 378.78474483 734.27832841 377.06076223 734.28101999 C372.35516085 734.28710058 367.64957734 734.28700884 362.94397295 734.28582561 C357.85659221 734.28562066 352.76921708 734.2911493 347.68183899 734.29588318 C337.72733841 734.30416932 327.77284376 734.30693708 317.81834003 734.30749556 C309.7238206 734.30797161 301.62930312 734.31003078 293.53478432 734.31319618 C270.56155299 734.32199655 247.58832633 734.32661643 224.61509331 734.32586571 C223.37808298 734.32582575 222.14107264 734.3257858 220.86657715 734.32574463 C219.62804866 734.32570375 218.38952017 734.32566287 217.11346052 734.32562075 C197.0400568 734.32521427 176.96667184 734.33478596 156.89327355 734.348883 C136.25875697 734.36325925 115.62424952 734.37015252 94.9897278 734.36928922 C83.41430354 734.36895772 71.83889896 734.37168418 60.26347923 734.38246727 C50.409187 734.39158862 40.55492336 734.39373403 30.70062872 734.38695785 C25.67790029 734.38370114 20.65522667 734.38360522 15.63250351 734.3923111 C11.02521529 734.40021447 6.41802502 734.39870579 1.81073908 734.39002696 C0.15338379 734.38850041 -1.50397894 734.39027588 -3.16132543 734.39588704 C-35.36427271 734.49760213 -67.11159587 727.63159015 -95.44274902 712.14044189 C-96.51009277 711.56423096 -97.57743652 710.98802002 -98.67712402 710.39434814 C-131.78221113 691.82633944 -158.52940736 658.94004373 -169.24401855 622.4085083 C-172.76819834 609.77344013 -176.02764043 597.06979256 -177.50524902 584.01544189 C-177.66122559 582.71348877 -177.81720215 581.41153564 -177.97790527 580.07012939 C-179.23957626 567.66375337 -179.59074147 555.27474359 -179.57646179 542.8132019 C-179.57833555 541.23399914 -179.58063847 539.65479684 -179.58332711 538.07559526 C-179.58938203 533.78373109 -179.58931906 529.49188658 -179.58813274 525.20001912 C-179.58792711 520.55217652 -179.59346288 515.90433996 -179.59819031 511.25650024 C-179.60646319 502.16734521 -179.60924364 493.07819667 -179.60980269 483.98903818 C-179.61027954 476.59166351 -179.61234271 469.19429096 -179.61550331 461.79691696 C-179.62430146 440.77354258 -179.62892412 419.75017329 -179.62817284 398.72679706 C-179.62813288 397.59566802 -179.62809292 396.46453898 -179.62805176 395.2991333 C-179.62801088 394.16660532 -179.62797 393.03407735 -179.62792788 391.86723034 C-179.62752186 373.53380131 -179.63708242 355.20039286 -179.65119012 336.86696978 C-179.66559797 317.99286912 -179.67245786 299.11877847 -179.67159635 280.24467218 C-179.67126585 269.66831045 -179.67394779 259.09197029 -179.6847744 248.51561356 C-179.69393773 239.50708839 -179.69600734 230.49859456 -179.68926498 221.49006672 C-179.68602865 216.90555934 -179.68583668 212.32111187 -179.69461823 207.73661041 C-179.8007939 148.45554394 -173.61750247 93.95111743 -131.44274902 49.14044189 C-130.90649902 48.55134033 -130.37024902 47.96223877 -129.81774902 47.35528564 C-120.55252409 37.55731028 -109.08565803 29.78962377 -97.44274902 23.14044189 C-96.87507813 22.8094751 -96.30740723 22.4785083 -95.72253418 22.13751221 C-66.45633454 5.17042282 -33.39731051 -0.02011294 0 0 Z " fill="#1F4BB7" transform="translate(319.4427490234375,144.85955810546875)"/>
<path d="M0 0 C0.92356796 0.05741867 1.84713593 0.11483734 2.7986908 0.17399597 C5.72304984 0.36291563 8.64442491 0.57826503 11.56640625 0.80078125 C12.47996887 0.86783264 13.39353149 0.93488403 14.33477783 1.00396729 C20.77152688 1.48234593 27.20060684 2.03310136 33.62890625 2.61328125 C35.09268204 2.74441818 35.09268204 2.74441818 36.58602905 2.87820435 C52.66754249 4.33062559 68.64457443 6.06509775 84.56640625 8.80078125 C85.56188477 8.96626465 86.55736328 9.13174805 87.58300781 9.30224609 C110.01622381 13.12900266 132.352564 20.27467906 152.56640625 30.80078125 C153.9463142 31.49408777 155.32653972 32.18676247 156.70703125 32.87890625 C173.98650838 41.66247848 188.90899924 52.56479623 203.19921875 65.66796875 C204.74664739 67.06218663 206.32437871 68.42366951 207.93359375 69.74609375 C208.65804687 70.34164062 209.3825 70.9371875 210.12890625 71.55078125 C210.76957031 72.06125 211.41023437 72.57171875 212.0703125 73.09765625 C214.03188227 75.3306704 214.31211287 76.85437227 214.56640625 79.80078125 C213.44921875 81.72265625 213.44921875 81.72265625 211.69140625 83.55078125 C210.716875 84.58138672 210.716875 84.58138672 209.72265625 85.6328125 C209.01109375 86.34824219 208.29953125 87.06367188 207.56640625 87.80078125 C206.85484375 88.52652344 206.14328125 89.25226563 205.41015625 90 C202.37956417 93.05726983 199.30784129 96.07178639 196.23828125 99.08984375 C192.02887906 103.25629286 188.01243652 107.5006049 184.15234375 111.9921875 C181.90323016 114.55706334 179.50739796 116.91722464 177.06640625 119.30078125 C173.27960052 123.03080748 169.69243316 126.86312204 166.2421875 130.90625 C164.42663247 132.95880056 162.51881089 134.87824131 160.56640625 136.80078125 C157.41719744 139.90792047 154.48663658 143.12568429 151.60546875 146.48046875 C149.53102637 148.84104111 147.40188972 151.13991735 145.25708008 153.4362793 C140.28884711 158.75778128 135.54092175 164.17172558 130.98046875 169.8515625 C128.05968577 173.41983297 125.03713428 176.89061794 122.00390625 180.36328125 C117.03797198 186.0624884 112.22189475 191.84356393 107.56640625 197.80078125 C106.71911541 198.87789171 105.87143311 199.9546943 105.0234375 201.03125 C102.67556837 204.01368968 100.33206678 206.99952984 97.98974609 209.98632812 C95.68379744 212.92591825 93.37495212 215.86323072 91.06640625 218.80078125 C90.61072266 219.38085938 90.15503906 219.9609375 89.68554688 220.55859375 C87.43236147 223.42686371 85.17822068 226.29437152 82.921875 229.16015625 C77.78214184 235.69064074 72.66529918 242.2383492 67.56640625 248.80078125 C59.12868282 259.65776801 50.64790057 270.47613242 42.04199219 281.20043945 C38.7273858 285.33514913 35.45130437 289.49787957 32.19140625 293.67578125 C27.5402449 299.63207233 22.73709172 305.45338532 17.90332031 311.26196289 C14.33751848 315.57234227 10.90944879 319.95717833 7.5637207 324.44018555 C3.00696266 330.54397838 -1.63202238 336.38126515 -6.99609375 341.80078125 C-7.48480957 342.29940674 -7.97352539 342.79803223 -8.47705078 343.31176758 C-12.95285151 347.67891719 -12.95285151 347.67891719 -16.43359375 347.80078125 C-19.0720043 345.1623707 -18.68577445 343.99119504 -18.69086266 340.30839157 C-18.69731155 339.13420536 -18.70376044 337.96001915 -18.71040475 336.75025153 C-18.70730755 335.44892036 -18.70421035 334.14758918 -18.70101929 332.80682373 C-18.70475276 331.41931353 -18.70935306 330.03180543 -18.71474993 328.6443007 C-18.72703325 324.81804877 -18.72671323 320.99188392 -18.72436118 317.16561675 C-18.72395435 313.04414874 -18.73497948 308.92270916 -18.74447632 304.80125427 C-18.76111725 296.72086955 -18.76658729 288.640514 -18.76770107 280.56011358 C-18.76865023 273.99317868 -18.77275391 267.42625344 -18.77910233 260.85932159 C-18.79672438 242.2527799 -18.80593987 223.64626131 -18.80444138 205.03971121 C-18.80436147 204.03580084 -18.80428155 203.03189048 -18.80419922 201.99755859 C-18.80411746 200.99242628 -18.8040357 199.98729397 -18.80395146 198.9517031 C-18.80313863 182.66343049 -18.822273 166.37525037 -18.85047595 150.08700451 C-18.87918658 133.37402221 -18.8930172 116.66108504 -18.8912884 99.94807744 C-18.89062379 90.56036429 -18.89614679 81.17274805 -18.9176445 71.78505707 C-18.93583253 63.79117617 -18.94022339 55.79743608 -18.92662565 47.80354348 C-18.92008348 43.72380085 -18.92002346 39.64432855 -18.93733215 35.56461143 C-18.95301359 31.83005786 -18.95025028 28.09599005 -18.93276389 24.36144868 C-18.92822291 22.36971293 -18.94339011 20.37796242 -18.95924318 18.38628459 C-18.87550829 7.60152706 -18.87550829 7.60152706 -14.43359375 2.80078125 C-9.97097682 -1.09801991 -5.57120635 -0.41992793 0 0 Z " fill="#43D5D4" transform="translate(285.43359375,311.19921875)"/>
<path d="M0 0 C1.81564453 -0.04253906 1.81564453 -0.04253906 3.66796875 -0.0859375 C7.65365015 0.49829903 9.7521982 1.77972235 12.8125 4.375 C14.72819985 8.13729777 15.06190328 11.23504516 15.05973816 15.4256897 C15.06393265 16.64307831 15.06812714 17.86046692 15.07244873 19.11474609 C15.06696407 20.45752033 15.06128105 21.80029376 15.05541992 23.14306641 C15.05649392 24.56529833 15.05843435 25.98752983 15.06117249 27.40975952 C15.06602895 31.28524512 15.05833631 35.16061577 15.04821944 39.03608751 C15.03936015 43.15380732 15.04119851 47.27152431 15.0415802 51.38925171 C15.04064122 58.36189649 15.03195859 65.33449802 15.01831055 72.30712891 C15.00459093 79.33903871 14.99728651 86.37090865 14.99780273 93.40283203 C14.99916402 116.72723934 14.95594481 140.05099058 14.8125 163.375 C14.80779222 164.14115065 14.80308443 164.90730129 14.79823399 165.69666862 C14.73949849 174.99791813 14.6567556 184.29850209 14.53621864 193.59916306 C14.50462334 196.14443986 14.47766632 198.68977908 14.45567894 201.23515701 C14.42403851 204.69409103 14.37368445 208.15222713 14.31762695 211.61083984 C14.30892673 213.10929758 14.30892673 213.10929758 14.30005074 214.63802719 C14.18261712 220.2958631 13.52000709 224.37191829 10.8125 229.375 C6.80214172 233.13471088 3.16632297 233.49733258 -2.17749023 233.45678711 C-4.03234291 233.44699074 -4.03234291 233.44699074 -5.92466736 233.43699646 C-6.5867967 233.43125547 -7.24892605 233.42551449 -7.93111992 233.41959953 C-10.02456757 233.40210581 -12.11793748 233.3918721 -14.21144104 233.38368225 C-20.16520569 233.35935992 -26.11886899 233.32449662 -32.07250977 233.27905273 C-48.55180257 233.15768295 -64.81802452 233.1885298 -81.1875 235.375 C-82.73860474 235.55591187 -82.73860474 235.55591187 -84.32104492 235.74047852 C-116.35308361 239.50564278 -146.26820769 249.22660756 -175.1875 263.375 C-176.30125 263.91423096 -176.30125 263.91423096 -177.4375 264.46435547 C-182.05447309 266.70398091 -186.62980754 269.01732575 -191.1875 271.375 C-192.07759766 271.83503418 -192.96769531 272.29506836 -193.88476562 272.76904297 C-196.80045398 274.27919745 -199.71343905 275.79440414 -202.625 277.3125 C-203.55658936 277.79783203 -204.48817871 278.28316406 -205.44799805 278.78320312 C-206.30949463 279.23501953 -207.17099121 279.68683594 -208.05859375 280.15234375 C-208.83130615 280.55702881 -209.60401855 280.96171387 -210.40014648 281.37866211 C-212.15221801 282.24860495 -212.15221801 282.24860495 -213.1875 283.375 C-216.125 283.5625 -216.125 283.5625 -219.1875 283.375 C-221.66688694 280.89561306 -221.44447892 280.16418636 -221.46838379 276.74655151 C-221.47980408 275.77090744 -221.49122437 274.79526337 -221.50299072 273.79005432 C-221.50522644 272.71577682 -221.50746216 271.64149933 -221.50976562 270.53466797 C-221.51969543 269.4060585 -221.52962524 268.27744904 -221.53985596 267.11463928 C-221.5691629 263.3654642 -221.58271568 259.61645851 -221.59375 255.8671875 C-221.60525035 253.26604201 -221.61676585 250.66489658 -221.6282959 248.06375122 C-221.64664398 243.29997678 -221.65923532 238.53627025 -221.6652894 233.77246654 C-221.67423586 226.77154311 -221.70925519 219.7714036 -221.76729059 212.77071846 C-221.81585334 206.70091186 -221.83118405 200.63142701 -221.8346405 194.5614357 C-221.84069037 191.98345811 -221.85673692 189.4054837 -221.88301086 186.8276329 C-221.91719308 183.2150555 -221.91335788 179.60437356 -221.90039062 175.99169922 C-221.91882019 174.92956711 -221.93724976 173.867435 -221.95623779 172.77311707 C-221.8751098 165.54359341 -220.16214587 161.59536815 -215.1875 156.375 C-214.73069099 155.87241102 -214.27388199 155.36982204 -213.80323029 154.8520031 C-212.51028498 153.4696482 -211.1617336 152.13997177 -209.8125 150.8125 C-209.33337158 150.33981689 -208.85424316 149.86713379 -208.3605957 149.38012695 C-205.17572391 146.26350622 -201.87092197 143.33634696 -198.48046875 140.44921875 C-194.61397725 136.95159186 -190.99629208 133.20280948 -187.32983398 129.49780273 C-183.71344049 125.85804942 -180.02765207 122.39359021 -176.109375 119.078125 C-172.87443788 116.21139211 -169.88919991 113.09566478 -166.875 110 C-164.09664986 107.28626265 -161.20878865 104.75199578 -158.27539062 102.20898438 C-154.92004683 99.26168052 -151.68239992 96.19275898 -148.4375 93.125 C-141.73793752 86.81788051 -134.98246626 80.57909963 -128.1875 74.375 C-127.14541385 73.41712283 -126.10375562 72.45877993 -125.0625 71.5 C-116.45683377 63.57989486 -116.45683377 63.57989486 -112.25 59.9375 C-108.65791211 56.82535705 -105.17201718 53.60624165 -101.6875 50.375 C-97.55877084 46.54705475 -93.4026378 42.76641397 -89.14453125 39.08203125 C-86.8019085 37.03866569 -84.49476578 34.95819141 -82.1875 32.875 C-77.88899627 28.99983376 -73.5596899 25.16668065 -69.1875 21.375 C-68.6713916 20.92189453 -68.1552832 20.46878906 -67.62353516 20.00195312 C-47.74696842 2.55592957 -47.74696842 2.55592957 -36.2734375 1.83984375 C-35.24898781 1.77497017 -35.24898781 1.77497017 -34.20384216 1.70878601 C-31.99036292 1.57099144 -29.77656228 1.44057021 -27.5625 1.3125 C-26.8140683 1.268974 -26.0656366 1.225448 -25.29452515 1.18060303 C-7.23272943 0.14302964 -7.23272943 0.14302964 0 0 Z " fill="#FEC93F" transform="translate(742.1875,467.625)"/>
<path d="M0 0 C3.14597987 3.06319092 5.15156575 5.6419454 5.74363708 10.06869507 C5.57536359 21.41688304 4.40639672 32.63381323 3.22265625 43.9140625 C3.00020059 46.08484368 2.77840585 48.25569269 2.55723572 50.42660522 C1.97686422 56.10737645 1.38827229 61.78726461 0.79766846 67.46697998 C0.08283964 74.35494494 -0.62289707 81.2438461 -1.32928562 88.13268089 C-1.87918601 93.49471189 -2.43060419 98.85656947 -2.98704529 104.21792603 C-3.18930787 106.17343029 -3.39146526 108.12894544 -3.59350586 110.08447266 C-3.68869475 111.00137186 -3.78388365 111.91827106 -3.88195705 112.86295509 C-4.47051163 118.59654299 -4.97473419 124.32885659 -5.33399963 130.0821228 C-5.85626649 134.08504589 -7.06010077 136.15570094 -9.625 139.3125 C-13.39350413 142.18692444 -16.97715889 143.67823495 -21.75 143.3125 C-30.44070476 141.58452361 -36.36216664 133.98317466 -41.875 127.5625 C-44.93691719 124.0423367 -48.08105301 120.61439305 -51.3125 117.25 C-52.00811035 116.49734863 -52.00811035 116.49734863 -52.71777344 115.72949219 C-55.21966043 113.09615284 -55.21966043 113.09615284 -58.59765625 112.15234375 C-61.67662879 113.91429913 -63.95993949 116.38418436 -66.375 118.9375 C-67.45370255 120.05014546 -68.53442648 121.16083486 -69.6171875 122.26953125 C-70.39787598 123.06931396 -70.39787598 123.06931396 -71.19433594 123.88525391 C-72.88319685 125.57007999 -74.66000613 127.10760246 -76.5 128.625 C-80.1921079 131.76745423 -83.4022766 135.2573627 -86.671875 138.82421875 C-94.72672987 147.52786176 -103.08182445 155.92097414 -111.47705078 164.29492188 C-114.02103328 166.8334885 -116.55955128 169.3774333 -119.09765625 171.921875 C-120.7392624 173.56282112 -122.38117831 175.20345744 -124.0234375 176.84375 C-124.76943207 177.5917688 -125.51542664 178.3397876 -126.2840271 179.11047363 C-130.37411844 183.18253324 -134.55297953 187.08799231 -138.93287659 190.84742737 C-141.10702373 192.72984531 -143.15819261 194.71299125 -145.1875 196.75 C-145.86941406 197.42933594 -146.55132813 198.10867188 -147.25390625 198.80859375 C-149.15055997 200.81148507 -150.95248279 202.84247207 -152.74853516 204.93327332 C-156.67046831 209.42390995 -160.81236445 213.66176871 -165.01953125 217.8840332 C-165.82860931 218.69968246 -166.63768738 219.51533173 -167.47128296 220.35569763 C-170.12380428 223.02777712 -172.78019484 225.69595954 -175.4375 228.36328125 C-176.34907867 229.27893545 -177.26065735 230.19458965 -178.19985962 231.13799095 C-182.52181056 235.47858588 -186.84578131 239.81714724 -191.1728735 244.1526168 C-196.14885883 249.13839992 -201.11642462 254.13238192 -206.0771265 259.1333707 C-210.39283759 263.48291345 -214.71951107 267.82140097 -219.05014038 272.15608788 C-220.88430248 273.99511947 -222.71508604 275.83752717 -224.54238892 277.6833744 C-227.09576184 280.26106383 -229.66144012 282.8258659 -232.23046875 285.38793945 C-233.35441544 286.53110123 -233.35441544 286.53110123 -234.50106812 287.69735718 C-239.81226813 292.95634108 -244.7451801 296.73699281 -252.5625 296.75 C-253.72072266 296.77900391 -253.72072266 296.77900391 -254.90234375 296.80859375 C-261.94404117 295.5255298 -267.44231137 291.17533469 -272.8125 286.6875 C-274.11406181 285.62826509 -275.41615576 284.56968376 -276.71875 283.51171875 C-278.65087795 281.93058124 -280.58177983 280.34796873 -282.51171875 278.76416016 C-284.26910996 277.33042495 -286.03903376 275.9137694 -287.8125 274.5 C-288.83730469 273.66855469 -289.86210937 272.83710937 -290.91796875 271.98046875 C-293.38077452 270.07066155 -293.38077452 270.07066155 -295.59057617 270.56884766 C-299.07470611 271.84241777 -301.84091338 274.25273148 -304.75 276.5 C-305.44649658 277.03028809 -306.14299316 277.56057617 -306.8605957 278.10693359 C-309.12207231 279.83362361 -311.37474543 281.57121453 -313.625 283.3125 C-314.38312988 283.8988623 -315.14125977 284.48522461 -315.92236328 285.08935547 C-319.74348135 288.04907948 -323.55760269 291.01763664 -327.3671875 293.9921875 C-333.09552127 298.46401649 -338.86002845 302.88804916 -344.625 307.3125 C-346.24596904 308.55871561 -347.86656609 309.80541346 -349.48706055 311.05224609 C-351.1265967 312.31372853 -352.76642307 313.57483308 -354.40625 314.8359375 C-356.4697706 316.42316587 -358.53209006 318.01191417 -360.59375 319.6015625 C-369.06676305 326.13102359 -377.57374461 332.61547067 -386.0859375 339.09375 C-389.71985137 341.85976815 -393.3499405 344.63067885 -396.9765625 347.40625 C-412.27789105 359.1094274 -427.73266235 370.59208547 -443.39233398 381.81201172 C-446.62689896 384.13072478 -449.84292787 386.45846584 -452.984375 388.90234375 C-453.93828125 389.63582031 -454.8921875 390.36929687 -455.875 391.125 C-456.66390625 391.75019531 -457.4528125 392.37539063 -458.265625 393.01953125 C-461.25782873 394.65929853 -463.2619183 394.69804666 -466.625 394.3125 C-468.625 392.3125 -468.625 392.3125 -468.7265625 389.7109375 C-467.08312313 384.6407522 -463.7145378 381.65865908 -460 377.9375 C-458.58978116 376.49351901 -457.18091826 375.04821249 -455.7734375 373.6015625 C-455.07702148 372.88967773 -454.38060547 372.17779297 -453.66308594 371.44433594 C-451.10628759 368.76992732 -448.68196718 365.9965248 -446.26416016 363.19677734 C-443.78130383 360.34263895 -441.20408108 357.57946115 -438.625 354.8125 C-435.4125331 351.35048265 -432.21393335 347.88597192 -429.125 344.3125 C-423.59154844 337.92156442 -417.77100306 331.78189635 -412.02246094 325.58496094 C-404.98674281 318.02725098 -404.98674281 318.02725098 -398.125 310.3125 C-393.10496326 304.51453989 -387.83899708 298.93543803 -382.625 293.3125 C-376.36102364 286.54989865 -370.12058362 279.77133969 -363.96875 272.90625 C-361.21031613 269.85358319 -358.41997956 266.83167344 -355.625 263.8125 C-351.34147899 259.18495346 -347.10067347 254.52278336 -342.890625 249.828125 C-336.03345997 242.21430728 -329.06828407 234.69717886 -322.1105957 227.17529297 C-319.18421915 224.00982562 -316.27436791 220.83032333 -313.37792969 217.63745117 C-312.02257435 216.14977819 -310.65590027 214.67244265 -309.2890625 213.1953125 C-307.4891138 211.24756743 -305.71812347 209.28944134 -303.9609375 207.3046875 C-303.10757813 206.37914062 -302.25421875 205.45359375 -301.375 204.5 C-300.25351562 203.25283203 -300.25351562 203.25283203 -299.109375 201.98046875 C-296.625 200.3125 -296.625 200.3125 -293.2734375 200.2109375 C-288.73919102 201.57994982 -286.03635489 203.68785632 -282.5 206.75 C-281.18960256 207.83950516 -279.87838858 208.92802889 -278.56640625 210.015625 C-277.91172363 210.56541016 -277.25704102 211.11519531 -276.58251953 211.68164062 C-273.58113386 214.18217147 -270.52030505 216.60102847 -267.4375 219 C-266.41269531 219.80824219 -265.38789063 220.61648438 -264.33203125 221.44921875 C-261.22567127 223.74143935 -261.22567127 223.74143935 -257.625 224.3125 C-255.39184528 222.54116407 -253.53492534 220.82697416 -251.57421875 218.78515625 C-250.99718704 218.20342148 -250.42015533 217.62168671 -249.82563782 217.02232361 C-247.97595514 215.15125515 -246.14454401 213.26332579 -244.3125 211.375 C-243.09029297 210.13628323 -241.86699701 208.89863987 -240.64257812 207.66210938 C-235.32060436 202.26592212 -230.09610624 196.83244799 -225.17114258 191.06811523 C-221.73409977 187.16541907 -217.94375619 183.59375606 -214.23046875 179.95703125 C-211.08056225 176.84625402 -208.0461404 173.69890621 -205.15625 170.34375 C-200.89360087 165.40022778 -196.24299832 160.8803451 -191.5859375 156.3125 C-187.65496164 152.42705668 -183.94641914 148.43722585 -180.33984375 144.25 C-177.03708577 140.51841012 -173.43639282 137.08345994 -169.875 133.6015625 C-166.93279983 130.69876679 -164.11002804 127.75752266 -161.42578125 124.61328125 C-157.57556544 120.19076352 -153.48087934 116.05845384 -149.3125 111.9375 C-148.53994873 111.16873535 -147.76739746 110.3999707 -146.97143555 109.60791016 C-143.70123964 106.3539017 -140.4250651 103.10593734 -137.14941406 99.85742188 C-134.74334715 97.46954648 -132.34036962 95.07859207 -129.9375 92.6875 C-129.20813232 91.96643066 -128.47876465 91.24536133 -127.72729492 90.50244141 C-123.67779405 86.47211475 -119.81651591 82.34611103 -116.10510254 78.00152588 C-113.62312177 75.16920201 -110.82254574 72.69237339 -108.03125 70.171875 C-106.40015839 68.45077318 -106.40015839 68.45077318 -106.80249023 66.45141602 C-107.85220358 63.72166278 -109.29837094 62.28314511 -111.37890625 60.23046875 C-112.15169922 59.46283203 -112.92449219 58.69519531 -113.72070312 57.90429688 C-114.53474609 57.11087891 -115.34878906 56.31746094 -116.1875 55.5 C-117.36795898 54.32727539 -117.36795898 54.32727539 -118.57226562 53.13085938 C-122.88715032 48.87288989 -127.28632467 44.77307644 -131.91381836 40.85644531 C-135.89898043 37.26075906 -138.86296047 33.75670292 -139.1875 28.25 C-138.53806285 23.70393998 -137.70984245 21.70582669 -134.625 18.3125 C-128.86898657 14.48527863 -122.891095 13.39228934 -116.14453125 12.53125 C-115.14649475 12.39233841 -114.14845825 12.25342682 -113.12017822 12.11030579 C-109.89427348 11.6644517 -106.66609669 11.23837864 -103.4375 10.8125 C-101.20546585 10.50743174 -98.97361376 10.20102848 -96.74194336 9.89331055 C-91.3235485 9.14897214 -85.90331381 8.41932202 -80.48217773 7.69525146 C-74.21493362 6.85568281 -67.95149607 5.9884037 -61.6875 5.125 C-60.57922852 4.97377686 -59.47095703 4.82255371 -58.32910156 4.66674805 C-45.30201507 2.88014837 -32.25326923 1.03628907 -19.30859375 -1.28125 C-12.74655269 -2.27463031 -6.09044092 -2.83520526 0 0 Z " fill="#FDCA3F" transform="translate(754.625,287.6875)"/>
<path d="M0 0 C5.5016927 3.51277142 10.19434452 7.98259149 14.95703125 12.41796875 C20.00022654 17.02413337 25.33011619 21.30750566 30.71484375 25.5078125 C35.14327416 29.01775364 37.66608491 32.4738519 38.796875 38.01171875 C38.88452645 39.48389633 38.92312889 40.95946546 38.92385864 42.43424988 C38.92667847 43.3133754 38.92949829 44.19250092 38.93240356 45.0982666 C38.92936722 46.53305359 38.92936722 46.53305359 38.92626953 47.99682617 C38.92889801 49.5168499 38.92889801 49.5168499 38.93157959 51.06758118 C38.93598154 54.41746736 38.93306657 57.76730078 38.9296875 61.1171875 C38.93036086 63.44078074 38.93133115 65.76437392 38.93258667 68.08796692 C38.93406127 72.956031 38.93191612 77.82407673 38.92724609 82.69213867 C38.92153944 88.94713641 38.92483524 95.20209134 38.93081856 101.45708752 C38.93442248 106.25328396 38.93328653 111.04947015 38.93069077 115.84566689 C38.93002152 118.15306923 38.93084984 120.46047249 38.93317032 122.76787376 C38.93569509 125.98353945 38.93185916 129.19913453 38.92626953 132.41479492 C38.92829376 133.37739227 38.93031799 134.33998962 38.93240356 135.33175659 C38.92958374 136.20242264 38.92676392 137.07308868 38.92385864 137.97013855 C38.9232931 139.11136059 38.9232931 139.11136059 38.92271614 140.27563763 C38.796875 142.01171875 38.796875 142.01171875 37.796875 143.01171875 C32.50456266 143.63570317 29.79840699 142.02310477 25.734375 138.94921875 C-17.16547606 108.69968022 -68.74279474 98.09250611 -119.8359375 92.0625 C-120.65763931 91.96544266 -121.47934113 91.86838531 -122.32594299 91.76838684 C-127.90275069 91.12466276 -133.47435498 90.64442484 -139.08154297 90.34448242 C-141.203125 90.01171875 -141.203125 90.01171875 -143.203125 88.01171875 C-143.14453125 86.14453125 -143.14453125 86.14453125 -142.203125 84.01171875 C-136.4576157 78.67140811 -129.55271214 74.54111242 -122.8828125 70.44921875 C-114.69574659 65.37750859 -106.68796209 60.05793266 -98.6960144 54.68566895 C-86.33129131 46.3780311 -73.93511669 38.14674817 -61.2734375 30.29638672 C-57.55284435 27.98768847 -53.84578301 25.65758565 -50.140625 23.32421875 C-49.38515381 22.84911865 -48.62968262 22.37401855 -47.85131836 21.88452148 C-42.98039359 18.80727677 -38.14697879 15.67571466 -33.33203125 12.51171875 C-32.74203842 12.12429001 -32.15204559 11.73686127 -31.54417419 11.33769226 C-28.6079426 9.40844355 -25.67482332 7.47467337 -22.74584961 5.53442383 C-21.67987549 4.83212646 -20.61390137 4.1298291 -19.515625 3.40625 C-18.56300781 2.77565674 -17.61039062 2.14506348 -16.62890625 1.49536133 C-11.51424036 -1.63284163 -5.5654888 -2.49657565 0 0 Z " fill="#43D5D4" transform="translate(457.203125,606.98828125)"/>
<path d="M0 0 C0 3 0 3 -1.64892578 4.97363281 C-2.4067334 5.70936523 -3.16454102 6.44509766 -3.9453125 7.203125 C-4.77546875 8.01910156 -5.605625 8.83507812 -6.4609375 9.67578125 C-7.34007812 10.52527344 -8.21921875 11.37476563 -9.125 12.25 C-14.67139508 17.654394 -20.07119492 23.02079384 -25 29 C-25.66 28.67 -26.32 28.34 -27 28 C-18.53729567 18.1515897 -9.22340315 9.12644031 0 0 Z " fill="#1A32B4" transform="translate(499,392)"/>
<path d="M0 0 C0.66 0.33 1.32 0.66 2 1 C-3.46538929 9.17568479 -3.46538929 9.17568479 -7 11 C-8.32 10.67 -9.64 10.34 -11 10 C-5.555 5.05 -5.555 5.05 0 0 Z " fill="#F8D437" transform="translate(643,516)"/>
<path d="M0 0 C0 0.99 0 1.98 0 3 C-1.423125 3.12375 -1.423125 3.12375 -2.875 3.25 C-4.421875 3.62125 -4.421875 3.62125 -6 4 C-7.16666667 5.91666667 -7.16666667 5.91666667 -8 8 C-10.125 9.25 -10.125 9.25 -12 10 C-12 7 -12 7 -10.9375 5.5625 C-7.87760636 3.09484384 -4.00817197 0 0 0 Z " fill="#193FC1" transform="translate(545,742)"/>
<path d="M0 0 C3.63 0.66 7.26 1.32 11 2 C4.76817087 5.11591456 -1.17800765 5.11968408 -8 5 C-8 4.67 -8 4.34 -8 4 C-5.36 3.34 -2.72 2.68 0 2 C0 1.34 0 0.68 0 0 Z " fill="#1037CB" transform="translate(684,290)"/>
<path d="M0 0 C0.5534764 2.07553648 1 3.84365964 1 6 C-0.0725 6.12375 -1.145 6.2475 -2.25 6.375 C-5.37863615 6.89643936 -7.33480424 7.40088254 -10 9 C-6.83047153 5.73991357 -3.60062011 2.77762123 0 0 Z " fill="#1339C6" transform="translate(339,648)"/>
<path d="M0 0 C0.66 0.33 1.32 0.66 2 1 C0.47005208 2.20442708 -1.05989583 3.40885417 -2.58984375 4.61328125 C-4.27155077 6.05683091 -4.27155077 6.05683091 -5 9 C-5.99 9.33 -6.98 9.66 -8 10 C-8.66 9.34 -9.32 8.68 -10 8 C-6.7 5.36 -3.4 2.72 0 0 Z " fill="#1038C9" transform="translate(363,630)"/>
<path d="M0 0 C0.99 0 1.98 0 3 0 C3 0.99 3 1.98 3 3 C4.65 3 6.3 3 8 3 C7.67 3.66 7.34 4.32 7 5 C5.02 5 3.04 5 1 5 C0.67 3.35 0.34 1.7 0 0 Z " fill="#F4D637" transform="translate(287,677)"/>
<path d="M0 0 C1.125 3.75 1.125 3.75 0 6 C-2.3140622 6.73075648 -4.64828869 7.40138258 -7 8 C-6.02133662 6.85373678 -5.04205413 5.70800212 -4.0625 4.5625 C-3.51722656 3.92441406 -2.97195313 3.28632813 -2.41015625 2.62890625 C-1.63204305 1.73008851 -0.84063472 0.84063472 0 0 Z " fill="#123CC5" transform="translate(669,425)"/>
<path d="M0 0 C-2.35277269 2.72426311 -4.62496331 3.8141763 -8 5 C-8 3.68 -8 2.36 -8 1 C-5.29120665 -0.35439668 -2.99066732 -0.06501451 0 0 Z " fill="#F5D139" transform="translate(535,746)"/>
<path d="M0 0 C0.33 0.66 0.66 1.32 1 2 C1.66 2 2.32 2 3 2 C3.33 1.34 3.66 0.68 4 0 C5.32 0 6.64 0 8 0 C7.67 0.99 7.34 1.98 7 3 C5.02 3.33 3.04 3.66 1 4 C0.67 2.68 0.34 1.36 0 0 Z " fill="#F7D537" transform="translate(744,696)"/>
<path d="M0 0 C0.66 0.33 1.32 0.66 2 1 C1.0479279 2.00596297 0.08812654 3.00461563 -0.875 4 C-1.40867187 4.556875 -1.94234375 5.11375 -2.4921875 5.6875 C-4 7 -4 7 -6 7 C-5.67 5.35 -5.34 3.7 -5 2 C-4.360625 1.855625 -3.72125 1.71125 -3.0625 1.5625 C-1.02454854 1.18992819 -1.02454854 1.18992819 0 0 Z " fill="#173EC3" transform="translate(634,522)"/>
<path d="M0 0 C0.66 0.33 1.32 0.66 2 1 C0.02 2.98 -1.96 4.96 -4 7 C-4.99 6.67 -5.98 6.34 -7 6 C-6.67 5.01 -6.34 4.02 -6 3 C-3.5 1.875 -3.5 1.875 -1 1 C-0.67 0.67 -0.34 0.34 0 0 Z " fill="#163CC2" transform="translate(613,541)"/>
<path d="M0 0 C4.04420651 1.77945087 7.46078487 4.39529673 11 7 C10.34 7.66 9.68 8.32 9 9 C8.51789063 8.57847656 8.03578125 8.15695312 7.5390625 7.72265625 C6.90742188 7.17480469 6.27578125 6.62695312 5.625 6.0625 C4.99851562 5.51722656 4.37203125 4.97195313 3.7265625 4.41015625 C2.04367666 2.93041376 2.04367666 2.93041376 0 2 C0 1.34 0 0.68 0 0 Z " fill="#EFD934" transform="translate(472,496)"/>
<path d="M0 0 C0.33 0.66 0.66 1.32 1 2 C-1.65654657 5.73884332 -3.58110387 7.64978174 -8 9 C-7.04270084 7.87411986 -6.08412105 6.7493285 -5.125 5.625 C-4.59132813 4.99851562 -4.05765625 4.37203125 -3.5078125 3.7265625 C-2.38567993 2.44163349 -1.20628025 1.20628025 0 0 Z " fill="#324AB2" transform="translate(612,481)"/>
<path d="M0 0 C3.7952131 1.49097658 5.61042731 3.75700849 8 7 C7.67 7.66 7.34 8.32 7 9 C5.82737096 7.88121617 4.66204862 6.75476949 3.5 5.625 C2.8503125 4.99851562 2.200625 4.37203125 1.53125 3.7265625 C0 2 0 2 0 0 Z " fill="#E5CE3A" transform="translate(718,419)"/>
<path d="M0 0 C1.32 0.66 2.64 1.32 4 2 C2.8803014 3.00593243 1.7540588 4.0045849 0.625 5 C-0.00148438 5.556875 -0.62796875 6.11375 -1.2734375 6.6875 C-3 8 -3 8 -5 8 C-5 7.01 -5 6.02 -5 5 C-4.360625 4.731875 -3.72125 4.46375 -3.0625 4.1875 C-0.66868314 3.11332248 -0.66868314 3.11332248 0 0 Z " fill="#F9D833" transform="translate(694,396)"/>
<path d="M0 0 C0.33 0.99 0.66 1.98 1 3 C-1.64 5.31 -4.28 7.62 -7 10 C-7 7 -7 7 -5.46875 5.17578125 C-4.8190625 4.56089844 -4.169375 3.94601562 -3.5 3.3125 C-2.8503125 2.68988281 -2.200625 2.06726563 -1.53125 1.42578125 C-0.77328125 0.72001953 -0.77328125 0.72001953 0 0 Z " fill="#FCE228" transform="translate(397,554)"/>
<path d="M0 0 C0.99 0.66 1.98 1.32 3 2 C3 2.99 3 3.98 3 5 C0.03 4.505 0.03 4.505 -3 4 C-2.01 2.68 -1.02 1.36 0 0 Z " fill="#2A4EB2" transform="translate(602,491)"/>
<path d="M0 0 C0.66 0.33 1.32 0.66 2 1 C0.37660195 2.70884005 -1.29319053 4.37446717 -3 6 C-3.66 6 -4.32 6 -5 6 C-3.63016497 2.83884224 -3.0109362 2.0072908 0 0 Z " fill="#143CC6" transform="translate(371,624)"/>
<path d="M0 0 C0.66 0.33 1.32 0.66 2 1 C1.375 2.9375 1.375 2.9375 0 5 C-3.125 5.75 -3.125 5.75 -6 6 C-4 4 -2 2 0 0 Z " fill="#1139C4" transform="translate(423,584)"/>
<path d="M0 0 C0.33 0.99 0.66 1.98 1 3 C-1.31 4.98 -3.62 6.96 -6 9 C-4.25618453 5.51236907 -2.47193291 2.96631949 0 0 Z " fill="#1C36B6" transform="translate(354,558)"/>
<path d="M0 0 C0.66 0 1.32 0 2 0 C1.6875 2.375 1.6875 2.375 1 5 C0.01 5.66 -0.98 6.32 -2 7 C-2.33 5.35 -2.66 3.7 -3 2 C-2.34 2 -1.68 2 -1 2 C-0.67 1.34 -0.34 0.68 0 0 Z " fill="#1D43BE" transform="translate(516,488)"/>
<path d="M0 0 C2 4 2 4 2 8 C0.68 8.33 -0.64 8.66 -2 9 C-1.34 6.03 -0.68 3.06 0 0 Z " fill="#1039C9" transform="translate(749,415)"/>
<path d="M0 0 C0.99 0 1.98 0 3 0 C3.125 2.875 3.125 2.875 3 6 C2.34 6.66 1.68 7.32 1 8 C0 7 0 7 -0.0625 3.4375 C-0.041875 2.303125 -0.02125 1.16875 0 0 Z " fill="#2D4FB2" transform="translate(749,408)"/>
</svg>
