<?xml version="1.0" encoding="UTF-8"?>
<svg version="1.1" xmlns="http://www.w3.org/2000/svg" width="180" height="180">
<path d="M0 0 C1.18883789 -0.01606293 2.37767578 -0.03212585 3.60253906 -0.04867554 C9.06689272 -0.09316452 14.53111343 -0.13466786 19.99560547 -0.15722656 C22.87256067 -0.17050868 25.74879689 -0.19825009 28.62548828 -0.23925781 C32.10977268 -0.288921 35.59341031 -0.31338944 39.07803345 -0.32045364 C41.03549071 -0.33033155 42.99277764 -0.36450166 44.94995117 -0.39926147 C52.69797668 -0.38107272 58.974824 0.47977927 65.33203125 5.19287109 C69.87284601 10.64263314 71.43653736 15.59017207 71.5090332 22.62890625 C71.52828606 24.26178085 71.52828606 24.26178085 71.54792786 25.92764282 C71.55531479 27.10055878 71.56270172 28.27347473 71.5703125 29.48193359 C71.57838425 30.69553558 71.58645599 31.90913757 71.59477234 33.15951538 C71.60860338 35.73002702 71.61932991 38.30055694 71.62719727 40.87109375 C71.64437414 44.78209764 71.68826712 48.69224827 71.73242188 52.60302734 C71.74255243 55.10432323 71.7510674 57.60562629 71.7578125 60.10693359 C71.77532059 61.26770416 71.79282867 62.42847473 71.81086731 63.62442017 C71.78969759 71.63837816 70.86001093 79.28568438 65.296875 85.44677734 C64.29333984 86.09453125 64.29333984 86.09453125 63.26953125 86.75537109 C62.59792969 87.21041016 61.92632812 87.66544922 61.234375 88.13427734 C57.5870774 90.16388237 54.5996064 90.32751223 50.50292969 90.35400391 C49.30448425 90.36361145 48.10603882 90.37321899 46.87127686 90.38311768 C45.57441956 90.38736755 44.27756226 90.39161743 42.94140625 90.39599609 C41.59482828 90.40175164 40.24825032 90.40750932 38.90167236 90.41326904 C36.07718526 90.42377108 33.25272653 90.42961846 30.42822266 90.43310547 C26.82256606 90.43857826 23.21728935 90.46258308 19.61175156 90.49107742 C16.82864313 90.5097769 14.04562472 90.51491334 11.2624588 90.51644135 C9.29111856 90.52091171 7.31982663 90.53952529 5.34857178 90.55841064 C-2.7038508 90.53845603 -8.1538935 90.22775427 -14.41796875 84.81787109 C-19.14277661 79.30559526 -20.77703013 75.0092905 -20.82910156 67.83276367 C-20.83870911 66.76097366 -20.84831665 65.68918365 -20.85821533 64.58491516 C-20.86246521 63.43073593 -20.86671509 62.2765567 -20.87109375 61.08740234 C-20.87679382 59.89362473 -20.8824939 58.69984711 -20.8883667 57.46989441 C-20.89781314 54.94225957 -20.90434927 52.41461244 -20.90820312 49.88696289 C-20.91788782 46.03753893 -20.94890702 42.18865367 -20.98046875 38.33935547 C-20.98700121 35.88037425 -20.99225073 33.42138923 -20.99609375 30.96240234 C-21.00844055 29.81834427 -21.02078735 28.67428619 -21.0335083 27.49555969 C-21.01167768 19.584487 -20.46886803 12.58343338 -15.29296875 6.31787109 C-10.22282089 2.21346568 -6.49827316 0.07966261 0 0 Z " fill="#224DB6" transform="translate(64.66796875,44.80712890625)"/>
<path d="M0 0 C19.81818182 1.41558442 19.81818182 1.41558442 26.625 7.25 C27.07875 7.8275 27.5325 8.405 28 9 C26.70022841 11.83362527 25.29740401 13.96382553 23.1875 16.25 C18.85139567 21.08817957 14.78968395 26.13643524 10.70776367 31.18847656 C9.14075379 33.12748322 7.57106483 35.06427795 6 37 C5.51305664 37.60295898 5.02611328 38.20591797 4.52441406 38.82714844 C3.3724758 40.23709441 2.18947958 41.62157781 1 43 C0.67 43 0.34 43 0 43 C0 28.81 0 14.62 0 0 Z " fill="#42D2D3" transform="translate(60,65)"/>
<path d="M0 0 C0 9.24 0 18.48 0 28 C-3.0628125 28.0928125 -3.0628125 28.0928125 -6.1875 28.1875 C-12.88353923 28.63708147 -18.25522562 30.27328615 -24.453125 32.94140625 C-27 34 -27 34 -29 34 C-30.21416526 21.04890388 -30.21416526 21.04890388 -27.5 16.46875 C-25.44167063 14.44258203 -23.31775425 12.72153467 -21 11 C-19.59673226 9.75835176 -18.200619 8.50856122 -16.8125 7.25 C-16.14863281 6.68667969 -15.48476562 6.12335938 -14.80078125 5.54296875 C-13.31744591 4.27199812 -11.89861241 2.9261471 -10.5 1.5625 C-8 0 -8 0 0 0 Z " fill="#FBC840" transform="translate(120,85)"/>
<path d="M0 0 C0.02707139 2.24993359 0.04642829 4.49996095 0.0625 6.75 C0.07410156 8.00296875 0.08570313 9.2559375 0.09765625 10.546875 C0.02021027 13.28536501 -0.17219185 15.41880293 -1 18 C-5 17 -5 17 -6.83789062 16.18164062 C-9.20670261 15.73472804 -9.20670261 15.73472804 -11.31835938 17.83007812 C-12.15173828 18.72146484 -12.98511719 19.61285156 -13.84375 20.53125 C-14.29472046 21.00115356 -14.74569092 21.47105713 -15.21032715 21.9552002 C-16.65275048 23.45878018 -18.07797829 24.97712569 -19.5 26.5 C-21.37111557 28.50381881 -23.25792561 30.4907282 -25.15625 32.46875 C-25.98962891 33.36013672 -26.82300781 34.25152344 -27.68164062 35.16992188 C-30 37 -30 37 -32.18066406 36.83227539 C-32.78104492 36.55762451 -33.38142578 36.28297363 -34 36 C-35.92246879 35.12352433 -35.92246879 35.12352433 -38 35 C-40.41281429 36.4331062 -40.41281429 36.4331062 -42.75 38.5625 C-43.61882812 39.29597656 -44.48765625 40.02945313 -45.3828125 40.78515625 C-46.24648437 41.51605469 -47.11015625 42.24695313 -48 43 C-49.53177954 44.17961801 -51.07237204 45.3479611 -52.625 46.5 C-53.60339844 47.22703125 -53.60339844 47.22703125 -54.6015625 47.96875 C-55.06304687 48.3090625 -55.52453125 48.649375 -56 49 C-56.66 48.67 -57.32 48.34 -58 48 C-57.31035156 47.24976563 -56.62070312 46.49953125 -55.91015625 45.7265625 C-55.45970947 45.23575195 -55.0092627 44.74494141 -54.54516602 44.23925781 C-53.55084954 43.15669227 -52.55522755 42.07532448 -51.55834961 40.99511719 C-49.12916582 38.35583133 -46.74238409 35.69970675 -44.40625 32.9765625 C-43.6328125 32.07679687 -42.859375 31.17703125 -42.0625 30.25 C-41.37285156 29.43015625 -40.68320313 28.6103125 -39.97265625 27.765625 C-36.96015537 25.06928758 -33.9245911 26 -30 26 C-27.77419521 24.03919683 -27.77419521 24.03919683 -25.6875 21.4375 C-21.95577229 17.09411493 -18.10668888 12.9878458 -14 9 C-14.515625 8.401875 -15.03125 7.80375 -15.5625 7.1875 C-16.036875 6.465625 -16.51125 5.74375 -17 5 C-16.67 4.01 -16.34 3.02 -16 2 C-14.27192682 1.66104344 -12.54248026 1.32908475 -10.8125 1 C-9.84957031 0.814375 -8.88664062 0.62875 -7.89453125 0.4375 C-5.2065794 0.03122388 -2.71228981 -0.07933572 0 0 Z " fill="#F5C543" transform="translate(120,62)"/>
<path d="M0 0 C2 2 2 2 2.1953125 5.2578125 C2.17210938 6.53398438 2.14890625 7.81015625 2.125 9.125 C2.10695313 10.40632813 2.08890625 11.68765625 2.0703125 13.0078125 C2.04710938 13.99523437 2.02390625 14.98265625 2 16 C0.77410156 15.57074219 0.77410156 15.57074219 -0.4765625 15.1328125 C-4.40946306 13.86835445 -8.36375613 12.85423675 -12.375 11.875 C-13.11105469 11.69324219 -13.84710938 11.51148437 -14.60546875 11.32421875 C-16.40311223 10.88064438 -18.20148254 10.44001734 -20 10 C-20 9.34 -20 8.68 -20 8 C-17.82368723 6.32155604 -15.67202551 4.80764638 -13.375 3.3125 C-12.75753906 2.88388672 -12.14007813 2.45527344 -11.50390625 2.01367188 C-7.37843518 -0.68308342 -4.9313832 -1.65584568 0 0 Z " fill="#41D0D3" transform="translate(86,103)"/>
<path d="M0 0 C0.66 0.33 1.32 0.66 2 1 C0.86500606 4.29148243 0.00716624 4.9959869 -3.125 6.75 C-4.548125 7.36875 -4.548125 7.36875 -6 8 C-4.73058503 4.08597051 -3.48832306 2.20927127 0 0 Z " fill="#2B59B3" transform="translate(73,103)"/>
</svg>
